<?xml version="1.0" encoding="UTF-8" standalone="no"?><!DOCTYPE svg PUBLIC "-//W3C//DTD SVG 1.1//EN" "http://www.w3.org/Graphics/SVG/1.1/DTD/svg11.dtd"><svg width="100%" height="100%" viewBox="0 0 2857 553" version="1.1" xmlns="http://www.w3.org/2000/svg" xmlns:xlink="http://www.w3.org/1999/xlink" xml:space="preserve" xmlns:serif="http://www.serif.com/" style="fill-rule:evenodd;clip-rule:evenodd;stroke-linejoin:round;stroke-miterlimit:2;"><rect id="Artboard1" x="0" y="0" width="2856.54" height="552.798" style="fill:none;"/><path d="M245.312,66.771l-180.838,-0c-13.185,-0 -23.874,10.689 -23.874,23.874l-0,131.673l204.712,0l-0,-155.547Z" style="fill:url(#_Linear1);"/><path d="M245.312,232.151l-204.712,0l-0,230.002c-0,13.185 10.689,23.874 23.874,23.874l180.838,0l-0,-253.876Z" style="fill:url(#_Linear2);"/><path d="M459.856,90.645c0,-13.185 -10.689,-23.874 -23.874,-23.874l-180.838,-0l0,253.876l204.712,-0l0,-230.002Z" style="fill:url(#_Linear3);"/><path d="M459.856,330.48l-204.712,-0l0,155.547l180.838,0c13.185,0 23.874,-10.689 23.874,-23.874l0,-131.673Z" style="fill:url(#_Linear4);"/><text x="541.087px" y="476.449px" style="font-family:'HelveticaNeue-Thin', 'Helvetica 35 Thin', sans-serif;font-size:560.468px;fill:url(#_Linear5);">W<tspan x="1011.41px 1078.62px 1430.45px 1690.59px 1942.81px 2329.93px " y="476.449px 476.449px 476.449px 476.449px 476.449px 476.449px ">INFLOW</tspan></text><defs><linearGradient id="_Linear1" x1="0" y1="0" x2="1" y2="0" gradientUnits="userSpaceOnUse" gradientTransform="matrix(419.256,419.256,-419.256,419.256,40.5998,66.7709)"><stop offset="0" style="stop-color:#ffa471;stop-opacity:1"/><stop offset="1" style="stop-color:#bd00ff;stop-opacity:1"/></linearGradient><linearGradient id="_Linear2" x1="0" y1="0" x2="1" y2="0" gradientUnits="userSpaceOnUse" gradientTransform="matrix(419.256,419.256,-419.256,419.256,40.5998,66.7709)"><stop offset="0" style="stop-color:#ffa471;stop-opacity:1"/><stop offset="1" style="stop-color:#bd00ff;stop-opacity:1"/></linearGradient><linearGradient id="_Linear3" x1="0" y1="0" x2="1" y2="0" gradientUnits="userSpaceOnUse" gradientTransform="matrix(419.256,419.256,-419.256,419.256,40.5998,66.7709)"><stop offset="0" style="stop-color:#ffa471;stop-opacity:1"/><stop offset="1" style="stop-color:#bd00ff;stop-opacity:1"/></linearGradient><linearGradient id="_Linear4" x1="0" y1="0" x2="1" y2="0" gradientUnits="userSpaceOnUse" gradientTransform="matrix(419.256,419.256,-419.256,419.256,40.5998,66.7709)"><stop offset="0" style="stop-color:#ffa471;stop-opacity:1"/><stop offset="1" style="stop-color:#bd00ff;stop-opacity:1"/></linearGradient><linearGradient id="_Linear5" x1="0" y1="0" x2="1" y2="0" gradientUnits="userSpaceOnUse" gradientTransform="matrix(2278.11,658.738,-658.738,2278.11,537.829,-48.3041)"><stop offset="0" style="stop-color:#fea471;stop-opacity:1"/><stop offset="1" style="stop-color:#bc00fe;stop-opacity:1"/></linearGradient></defs></svg>